<svg width="44" height="50" viewBox="0 0 44 50" fill="none" xmlns="http://www.w3.org/2000/svg">
<path fill-rule="evenodd" clip-rule="evenodd" d="M33.5951 10.5843C33.5519 11.2436 33.3567 11.8573 33.0093 12.4252C30.3984 14.9726 27.3024 16.6741 23.7212 17.5294C20.5537 18.5013 17.3183 18.836 14.0147 18.5336C12.7843 18.393 11.7802 17.863 11.0024 16.9437C10.1129 13.777 9.2483 10.5973 8.40839 7.40456C8.29681 7.06986 8.29681 6.73515 8.40839 6.40044C9.11567 6.24731 9.81297 6.33099 10.5003 6.65147C12.251 7.3726 13.7851 8.4045 15.1025 9.74751C15.7112 7.58179 16.7153 5.62928 18.1149 3.89014C18.3731 3.57585 18.6799 3.32482 19.0353 3.13705C21.8673 3.39528 24.2939 4.5388 26.3152 6.5678C27.0649 4.25849 28.2642 2.22247 29.9133 0.4594C30.4662 0.285034 30.8289 0.480269 31.0011 1.04514C31.8139 4.24761 32.6786 7.42732 33.5951 10.5843Z" fill="#C3C3C3"/>
<path fill-rule="evenodd" clip-rule="evenodd" d="M33.5952 10.5842C37.8321 12.69 40.7608 15.9814 42.3812 20.4581C43.4633 23.8262 43.575 27.229 42.7159 30.6666C40.7305 36.3441 38.778 42.0341 36.8586 47.7367C36.2648 48.8086 35.4003 49.1153 34.2646 48.6571C33.2048 47.7087 32.1447 46.7605 31.0849 45.8121C29.9646 44.8214 28.7374 44.654 27.4031 45.31C25.1147 46.7335 22.7718 48.0724 20.3743 49.3265C19.6491 49.4381 18.9238 49.4381 18.1987 49.3265C16.255 47.9966 14.3583 46.6018 12.5087 45.1427C11.7626 44.7844 10.9816 44.6729 10.1657 44.808C7.34149 46.2899 4.4686 47.6567 1.54703 48.9081C0.525192 48.7066 0.134689 48.0929 0.375561 47.0672C3.33214 38.1975 6.2887 29.3278 9.24529 20.4581C9.65967 19.183 10.2454 18.0115 11.0025 16.9437C11.7804 17.8629 12.7845 18.3929 14.0149 18.5335C17.3184 18.8359 20.5538 18.5012 23.7213 17.5294C27.3025 16.674 30.3986 14.9726 33.0095 12.4251C33.3569 11.8573 33.552 11.2436 33.5952 10.5842Z" fill="#D3D3D3"/>
<path d="M38.6883 28.9892C39.1251 27.7302 39.3022 26.3946 39.2039 25.1009C39.1056 23.8072 38.735 22.5952 38.1248 21.5724C37.5146 20.5495 36.6837 19.7473 35.7057 19.2369C34.7277 18.7265 33.6328 18.5235 32.5179 18.646C31.4031 18.7686 30.3028 19.2128 29.3144 19.9393C28.326 20.6659 27.48 21.6524 26.8515 22.8114C26.2229 23.9704 25.8312 25.2661 25.7109 26.5839C25.5907 27.9016 25.7456 29.2007 26.1621 30.3659L32.4509 26.6244L38.6883 28.9892Z" fill="white"/>
</svg>
