<svg width="25" height="25" viewBox="0 0 25 25" fill="none" xmlns="http://www.w3.org/2000/svg">
<path d="M10.83 17.497H4.5293" stroke="white" stroke-width="1.5" stroke-linecap="round" stroke-linejoin="round"/>
<path d="M13.6406 7.80447H19.9413" stroke="white" stroke-width="1.5" stroke-linecap="round" stroke-linejoin="round"/>
<path fill-rule="evenodd" clip-rule="evenodd" d="M9.22629 7.75037C9.22629 6.45471 8.16813 5.40411 6.86314 5.40411C5.55816 5.40411 4.5 6.45471 4.5 7.75037C4.5 9.04602 5.55816 10.0966 6.86314 10.0966C8.16813 10.0966 9.22629 9.04602 9.22629 7.75037Z" stroke="white" stroke-width="1.5" stroke-linecap="round" stroke-linejoin="round"/>
<path fill-rule="evenodd" clip-rule="evenodd" d="M20.5002 17.4579C20.5002 16.1622 19.4429 15.1116 18.1379 15.1116C16.8321 15.1116 15.7739 16.1622 15.7739 17.4579C15.7739 18.7535 16.8321 19.8041 18.1379 19.8041C19.4429 19.8041 20.5002 18.7535 20.5002 17.4579Z" stroke="white" stroke-width="1.5" stroke-linecap="round" stroke-linejoin="round"/>
</svg>
