<svg width="24" height="25" viewBox="0 0 24 25" fill="none" xmlns="http://www.w3.org/2000/svg">
<path d="M12 22.9041C10.6167 22.9041 9.31667 22.6414 8.1 22.1161C6.88334 21.5908 5.825 20.8784 4.925 19.9791C4.025 19.0798 3.31267 18.0214 2.788 16.8041C2.26333 15.5868 2.00067 14.2868 2 12.9041C1.99933 11.5214 2.262 10.2214 2.788 9.00411C3.314 7.78678 4.02633 6.72845 4.925 5.82911C5.82367 4.92978 6.882 4.21745 8.1 3.69211C9.318 3.16678 10.618 2.90411 12 2.90411C13.382 2.90411 14.682 3.16678 15.9 3.69211C17.118 4.21745 18.1763 4.92978 19.075 5.82911C19.9737 6.72845 20.6863 7.78678 21.213 9.00411C21.7397 10.2214 22.002 11.5214 22 12.9041C21.998 14.2868 21.7353 15.5868 21.212 16.8041C20.6887 18.0214 19.9763 19.0798 19.075 19.9791C18.1737 20.8784 17.1153 21.5911 15.9 22.1171C14.6847 22.6431 13.3847 22.9054 12 22.9041ZM12 20.9041C12.9 20.9041 13.7667 20.7584 14.6 20.4671C15.4333 20.1758 16.2 19.7548 16.9 19.2041L5.7 8.00411C5.15 8.70411 4.729 9.47078 4.437 10.3041C4.145 11.1374 3.99933 12.0041 4 12.9041C4 15.1374 4.775 17.0291 6.325 18.5791C7.875 20.1291 9.76667 20.9041 12 20.9041ZM18.3 17.8041C18.85 17.1041 19.271 16.3374 19.563 15.5041C19.855 14.6708 20.0007 13.8041 20 12.9041C20 10.6708 19.225 8.77911 17.675 7.22911C16.125 5.67911 14.2333 4.90411 12 4.90411C11.1 4.90411 10.2333 5.04978 9.4 5.34111C8.56667 5.63245 7.8 6.05345 7.1 6.60411L18.3 17.8041Z" fill="#A2A2A2"/>
</svg>
