<svg width="24" height="25" viewBox="0 0 24 25" fill="none" xmlns="http://www.w3.org/2000/svg">
<path d="M18 3.90411C19.0609 3.90411 20.0783 4.32554 20.8284 5.07569C21.5786 5.82583 22 6.84325 22 7.90411V15.9041C22 16.965 21.5786 17.9824 20.8284 18.7325C20.0783 19.4827 19.0609 19.9041 18 19.9041H13.276L8.514 22.7611C8.37059 22.8472 8.20788 22.8959 8.04077 22.9028C7.87366 22.9097 7.70749 22.8746 7.55746 22.8007C7.40743 22.7268 7.27833 22.6164 7.18199 22.4797C7.08565 22.343 7.02514 22.1843 7.006 22.0181L7 21.9041V19.9041H6C4.97376 19.9041 3.98677 19.5097 3.24319 18.8024C2.4996 18.0951 2.05631 17.1291 2.005 16.1041L2 15.9041V7.90411C2 6.84325 2.42143 5.82583 3.17157 5.07569C3.92172 4.32554 4.93913 3.90411 6 3.90411H18ZM14 12.9041H8C7.73478 12.9041 7.48043 13.0095 7.29289 13.197C7.10536 13.3845 7 13.6389 7 13.9041C7 14.1693 7.10536 14.4237 7.29289 14.6112C7.48043 14.7988 7.73478 14.9041 8 14.9041H14C14.2652 14.9041 14.5196 14.7988 14.7071 14.6112C14.8946 14.4237 15 14.1693 15 13.9041C15 13.6389 14.8946 13.3845 14.7071 13.197C14.5196 13.0095 14.2652 12.9041 14 12.9041ZM16 8.90411H8C7.73478 8.90411 7.48043 9.00947 7.29289 9.19701C7.10536 9.38454 7 9.6389 7 9.90411C7 10.1693 7.10536 10.4237 7.29289 10.6112C7.48043 10.7988 7.73478 10.9041 8 10.9041H16C16.2652 10.9041 16.5196 10.7988 16.7071 10.6112C16.8946 10.4237 17 10.1693 17 9.90411C17 9.6389 16.8946 9.38454 16.7071 9.19701C16.5196 9.00947 16.2652 8.90411 16 8.90411Z" fill="#878787"/>
</svg>
