{
  "accessors": [
    {
      "bufferView": 2,
      "componentType": 5126,
      "count": 64,
      "max": [
        1.5199999809265137,
        0.042495470494031906,
        2.740000009536743
      ],
      "min": [
        -1.5199999809265137,
        -0.02655715122818947,
        -2.740000009536743
      ],
      "type": "VEC3"
    },
    {
      "bufferView": 2,
      "byteOffset": 768,
      "componentType": 5126,
      "count": 64,
      "max": [
        1.0,
        1.0,
        1.0
      ],
      "min": [
        -1.0,
        -1.0,
        -1.0
      ],
      "type": "VEC3"
    },
    {
      "bufferView": 1,
      "componentType": 5126,
      "count": 64,
      "max": [
        0.8691737651824951,
        1.0
      ],
      "min": [
        0.125,
        0.0
      ],
      "type": "VEC2"
    },
    {
      "bufferView": 0,
      "componentType": 5125,
      "count": 150,
      "type": "SCALAR"
    },
    {
      "bufferView": 2,
      "byteOffset": 1536,
      "componentType": 5126,
      "count": 28,
      "max": [
        1.5199999809265137,
        0.042495470494031906,
        2.740000009536743
      ],
      "min": [
        -1.5199999809265137,
        0.042495470494031906,
        -2.740000009536743
      ],
      "type": "VEC3"
    },
    {
      "bufferView": 2,
      "byteOffset": 1872,
      "componentType": 5126,
      "count": 28,
      "max": [
        0.0,
        1.0,
        -0.0
      ],
      "min": [
        0.0,
        1.0,
        -0.0
      ],
      "type": "VEC3"
    },
    {
      "bufferView": 1,
      "byteOffset": 512,
      "componentType": 5126,
      "count": 28,
      "max": [
        0.875,
        0.75
      ],
      "min": [
        0.625,
        0.5
      ],
      "type": "VEC2"
    },
    {
      "bufferView": 0,
      "byteOffset": 600,
      "componentType": 5125,
      "count": 102,
      "type": "SCALAR"
    },
    {
      "bufferView": 2,
      "byteOffset": 2208,
      "componentType": 5126,
      "count": 396,
      "max": [
        1.8160399198532104,
        1.7937228679656982,
        0.010106846690177917
      ],
      "min": [
        -1.8160399198532104,
        1.4283047914505005,
        -0.010106846690177917
      ],
      "type": "VEC3"
    },
    {
      "bufferView": 2,
      "byteOffset": 6960,
      "componentType": 5126,
      "count": 396,
      "max": [
        1.0,
        1.0,
        1.0
      ],
      "min": [
        -1.0,
        -1.0,
        -1.0
      ],
      "type": "VEC3"
    },
    {
      "bufferView": 1,
      "byteOffset": 736,
      "componentType": 5126,
      "count": 396,
      "max": [
        1.0,
        1.0
      ],
      "min": [
        -1.341104507446289e-07,
        0.0
      ],
      "type": "VEC2"
    },
    {
      "bufferView": 0,
      "byteOffset": 1008,
      "componentType": 5125,
      "count": 1200,
      "type": "SCALAR"
    },
    {
      "bufferView": 2,
      "byteOffset": 11712,
      "componentType": 5126,
      "count": 76,
      "max": [
        1.5523185729980469,
        1.4490445852279663,
        0.015618269331753254
      ],
      "min": [
        -1.5523185729980469,
        1.4439786672592163,
        -0.015618269331753254
      ],
      "type": "VEC3"
    },
    {
      "bufferView": 2,
      "byteOffset": 12624,
      "componentType": 5126,
      "count": 76,
      "max": [
        0.9848073124885559,
        1.0,
        1.0
      ],
      "min": [
        -0.9848073124885559,
        -0.9396890997886658,
        -1.0
      ],
      "type": "VEC3"
    },
    {
      "bufferView": 1,
      "byteOffset": 3904,
      "componentType": 5126,
      "count": 76,
      "max": [
        1.0,
        1.0
      ],
      "min": [
        4.470348358154297e-08,
        0.024473756551742554
      ],
      "type": "VEC2"
    },
    {
      "bufferView": 0,
      "byteOffset": 5808,
      "componentType": 5125,
      "count": 192,
      "type": "SCALAR"
    },
    {
      "bufferView": 2,
      "byteOffset": 13536,
      "componentType": 5126,
      "count": 1001,
      "max": [
        1.7154645919799805,
        1.461695671081543,
        0.013748040422797203
      ],
      "min": [
        -1.7154645919799805,
        1.376144289970398,
        -0.013763646595180035
      ],
      "type": "VEC3"
    },
    {
      "bufferView": 2,
      "byteOffset": 25548,
      "componentType": 5126,
      "count": 1001,
      "max": [
        1.0,
        1.0,
        1.0
      ],
      "min": [
        -1.0,
        -1.0,
        -1.0
      ],
      "type": "VEC3"
    },
    {
      "bufferView": 1,
      "byteOffset": 4512,
      "componentType": 5126,
      "count": 1001,
      "max": [
        0.875,
        1.0
      ],
      "min": [
        0.1249999850988388,
        0.0
      ],
      "type": "VEC2"
    },
    {
      "bufferView": 0,
      "byteOffset": 6576,
      "componentType": 5125,
      "count": 3534,
      "type": "SCALAR"
    },
    {
      "bufferView": 2,
      "byteOffset": 37560,
      "componentType": 5126,
      "count": 59520,
      "max": [
        1.7792487144470215,
        1.788914442062378,
        -3.0412189744311036e-07
      ],
      "min": [
        -1.7828960418701172,
        1.5101096630096436,
        -3.0433540132435155e-07
      ],
      "type": "VEC3"
    },
    {
      "bufferView": 2,
      "byteOffset": 751800,
      "componentType": 5126,
      "count": 59520,
      "max": [
        0.0,
        0.0,
        1.0
      ],
      "min": [
        0.0,
        0.0,
        1.0
      ],
      "type": "VEC3"
    },
    {
      "bufferView": 1,
      "byteOffset": 12520,
      "componentType": 5126,
      "count": 59520,
      "max": [
        1.0,
        1.0
      ],
      "min": [
        0.0,
        0.0
      ],
      "type": "VEC2"
    },
    {
      "bufferView": 0,
      "byteOffset": 20712,
      "componentType": 5125,
      "count": 148800,
      "type": "SCALAR"
    },
    {
      "bufferView": 2,
      "byteOffset": 1466040,
      "componentType": 5126,
      "count": 106,
      "max": [
        1.8013821840286255,
        1.793254017829895,
        0.0010945422109216452
      ],
      "min": [
        -1.8013821840286255,
        1.5062586069107056,
        -0.0010945422109216452
      ],
      "type": "VEC3"
    },
    {
      "bufferView": 2,
      "byteOffset": 1467312,
      "componentType": 5126,
      "count": 106,
      "max": [
        1.0,
        1.0,
        1.0
      ],
      "min": [
        -1.0,
        -1.0,
        -1.0
      ],
      "type": "VEC3"
    },
    {
      "bufferView": 1,
      "byteOffset": 488680,
      "componentType": 5126,
      "count": 106,
      "max": [
        0.875,
        1.0
      ],
      "min": [
        0.125,
        0.0
      ],
      "type": "VEC2"
    },
    {
      "bufferView": 0,
      "byteOffset": 615912,
      "componentType": 5125,
      "count": 204,
      "type": "SCALAR"
    },
    {
      "bufferView": 2,
      "byteOffset": 1468584,
      "componentType": 5126,
      "count": 24,
      "max": [
        1.780833125114441,
        1.793254017829895,
        0.0010945422109216452
      ],
      "min": [
        -1.780833125114441,
        1.783740758895874,
        -0.0010945422109216452
      ],
      "type": "VEC3"
    },
    {
      "bufferView": 2,
      "byteOffset": 1468872,
      "componentType": 5126,
      "count": 24,
      "max": [
        0.0,
        1.0,
        1.0
      ],
      "min": [
        0.0,
        -1.0,
        -1.0
      ],
      "type": "VEC3"
    },
    {
      "bufferView": 1,
      "byteOffset": 489528,
      "componentType": 5126,
      "count": 24,
      "max": [
        0.625,
        0.75
      ],
      "min": [
        0.5416666269302368,
        0.5
      ],
      "type": "VEC2"
    },
    {
      "bufferView": 0,
      "byteOffset": 616728,
      "componentType": 5125,
      "count": 48,
      "type": "SCALAR"
    },
    {
      "bufferView": 2,
      "byteOffset": 1469160,
      "componentType": 5126,
      "count": 2978,
      "max": [
        1.0964692831039429,
        1.418601393699646,
        1.8310796022415161
      ],
      "min": [
        -1.0964692831039429,
        -0.08226922154426575,
        -1.8310796022415161
      ],
      "type": "VEC3"
    },
    {
      "bufferView": 2,
      "byteOffset": 1504896,
      "componentType": 5126,
      "count": 2978,
      "max": [
        1.0,
        0.9967907071113586,
        1.0
      ],
      "min": [
        -0.9999908208847046,
        -0.9967907071113586,
        -0.9995734691619873
      ],
      "type": "VEC3"
    },
    {
      "bufferView": 1,
      "byteOffset": 489720,
      "componentType": 5126,
      "count": 2978,
      "max": [
        0.875,
        1.0
      ],
      "min": [
        0.125,
        0.0
      ],
      "type": "VEC2"
    },
    {
      "bufferView": 0,
      "byteOffset": 616920,
      "componentType": 5125,
      "count": 15096,
      "type": "SCALAR"
    }
  ],
  "asset": {
    "extras": {
      "author": "Diccbudd (https://sketchfab.com/Diccbudd)",
      "license": "CC-BY-4.0 (http://creativecommons.org/licenses/by/4.0/)",
      "source": "https://sketchfab.com/3d-models/table-tennis-table-457c34c9297d44a1a5d4e5d093c6a712",
      "title": "Table Tennis Table"
    },
    "generator": "Sketchfab-12.68.0",
    "version": "2.0"
  },
  "bufferViews": [
    {
      "buffer": 0,
      "byteLength": 677304,
      "name": "floatBufferViews",
      "target": 34963
    },
    {
      "buffer": 0,
      "byteLength": 513544,
      "byteOffset": 677304,
      "byteStride": 8,
      "name": "floatBufferViews",
      "target": 34962
    },
    {
      "buffer": 0,
      "byteLength": 1540632,
      "byteOffset": 1190848,
      "byteStride": 12,
      "name": "floatBufferViews",
      "target": 34962
    }
  ],
  "buffers": [
    {
      "byteLength": 2731480,
      "uri": "scene.bin"
    }
  ],
  "materials": [
    {
      "doubleSided": true,
      "name": "Material",
      "pbrMetallicRoughness": {
        "baseColorFactor": [
          0.003935070000000003,
          0.06358389999999997,
          0.26668,
          1.0
        ],
        "metallicFactor": 0.0,
        "roughnessFactor": 0.3421997458487618
      }
    },
    {
      "doubleSided": true,
      "name": "Material.001",
      "pbrMetallicRoughness": {
        "baseColorFactor": [
          0.827383,
          0.827383,
          0.827383,
          1.0
        ],
        "metallicFactor": 0.0,
        "roughnessFactor": 0.8042929062619704
      }
    },
    {
      "doubleSided": true,
      "name": "Material.002",
      "pbrMetallicRoughness": {
        "baseColorFactor": [
          0.0258394,
          0.0278082,
          0.0278082,
          1.0
        ],
        "roughnessFactor": 0.672727
      }
    },
    {
      "doubleSided": true,
      "name": "Material.004"
    },
    {
      "doubleSided": true,
      "name": "Material.003",
      "pbrMetallicRoughness": {
        "baseColorFactor": [
          0.0,
          0.0,
          0.0,
          1.0
        ],
        "metallicFactor": 0.0,
        "roughnessFactor": 0.527273
      }
    }
  ],
  "meshes": [
    {
      "name": "Object_0",
      "primitives": [
        {
          "attributes": {
            "NORMAL": 1,
            "POSITION": 0,
            "TEXCOORD_0": 2
          },
          "indices": 3,
          "material": 0,
          "mode": 4
        }
      ]
    },
    {
      "name": "Object_1",
      "primitives": [
        {
          "attributes": {
            "NORMAL": 5,
            "POSITION": 4,
            "TEXCOORD_0": 6
          },
          "indices": 7,
          "material": 1,
          "mode": 4
        }
      ]
    },
    {
      "name": "Object_2",
      "primitives": [
        {
          "attributes": {
            "NORMAL": 9,
            "POSITION": 8,
            "TEXCOORD_0": 10
          },
          "indices": 11,
          "material": 2,
          "mode": 4
        }
      ]
    },
    {
      "name": "Object_3",
      "primitives": [
        {
          "attributes": {
            "NORMAL": 13,
            "POSITION": 12,
            "TEXCOORD_0": 14
          },
          "indices": 15,
          "material": 3,
          "mode": 4
        }
      ]
    },
    {
      "name": "Object_4",
      "primitives": [
        {
          "attributes": {
            "NORMAL": 17,
            "POSITION": 16,
            "TEXCOORD_0": 18
          },
          "indices": 19,
          "material": 2,
          "mode": 4
        }
      ]
    },
    {
      "name": "Object_5",
      "primitives": [
        {
          "attributes": {
            "NORMAL": 21,
            "POSITION": 20,
            "TEXCOORD_0": 22
          },
          "indices": 23,
          "material": 1,
          "mode": 4
        }
      ]
    },
    {
      "name": "Object_6",
      "primitives": [
        {
          "attributes": {
            "NORMAL": 25,
            "POSITION": 24,
            "TEXCOORD_0": 26
          },
          "indices": 27,
          "material": 4,
          "mode": 4
        }
      ]
    },
    {
      "name": "Object_7",
      "primitives": [
        {
          "attributes": {
            "NORMAL": 29,
            "POSITION": 28,
            "TEXCOORD_0": 30
          },
          "indices": 31,
          "material": 1,
          "mode": 4
        }
      ]
    },
    {
      "name": "Object_8",
      "primitives": [
        {
          "attributes": {
            "NORMAL": 33,
            "POSITION": 32,
            "TEXCOORD_0": 34
          },
          "indices": 35,
          "material": 2,
          "mode": 4
        }
      ]
    }
  ],
  "nodes": [
    {
      "children": [
        1
      ],
      "matrix": [
        1.0,
        0.0,
        0.0,
        0.0,
        0.0,
        2.220446049250313e-16,
        -1.0,
        0.0,
        0.0,
        1.0,
        2.220446049250313e-16,
        0.0,
        0.0,
        0.0,
        0.0,
        1.0
      ],
      "name": "Sketchfab_model"
    },
    {
      "children": [
        2
      ],
      "name": "root"
    },
    {
      "children": [
        3,
        6,
        9,
        11,
        13,
        16
      ],
      "matrix": [
        1.0,
        0.0,
        0.0,
        0.0,
        0.0,
        2.220446049250313e-16,
        1.0,
        0.0,
        0.0,
        -1.0,
        2.220446049250313e-16,
        0.0,
        0.0,
        0.0,
        0.0,
        1.0
      ],
      "name": "GLTF_SceneRootNode"
    },
    {
      "children": [
        4,
        5
      ],
      "matrix": [
        1.0,
        0.0,
        0.0,
        0.0,
        0.0,
        1.0,
        0.0,
        0.0,
        0.0,
        0.0,
        1.0,
        0.0,
        0.0,
        1.443828821182251,
        0.0,
        1.0
      ],
      "name": "Table_0"
    },
    {
      "mesh": 0,
      "name": "Object_4"
    },
    {
      "mesh": 1,
      "name": "Object_5"
    },
    {
      "children": [
        7,
        8
      ],
      "name": "NetHolder_1"
    },
    {
      "mesh": 2,
      "name": "Object_7"
    },
    {
      "mesh": 3,
      "name": "Object_8"
    },
    {
      "children": [
        10
      ],
      "name": "Clamp_2"
    },
    {
      "mesh": 4,
      "name": "Object_10"
    },
    {
      "children": [
        12
      ],
      "name": "Net_3"
    },
    {
      "mesh": 5,
      "name": "Object_12"
    },
    {
      "children": [
        14,
        15
      ],
      "name": "NetBorder_4"
    },
    {
      "mesh": 6,
      "name": "Object_14"
    },
    {
      "mesh": 7,
      "name": "Object_15"
    },
    {
      "children": [
        17
      ],
      "name": "Legs_5"
    },
    {
      "mesh": 8,
      "name": "Object_17"
    }
  ],
  "scene": 0,
  "scenes": [
    {
      "name": "Sketchfab_Scene",
      "nodes": [
        0
      ]
    }
  ]
}
