<svg width="20" height="21" viewBox="0 0 20 21" fill="none" xmlns="http://www.w3.org/2000/svg">
    <g clip-path="url(#clip0_1281_1290)">
        <path
            d="M8.74967 17.5708C8.74967 17.9023 8.88137 18.2203 9.11579 18.4547C9.35021 18.6891 9.66815 18.8208 9.99967 18.8208C10.3312 18.8208 10.6491 18.6891 10.8836 18.4547C11.118 18.2203 11.2497 17.9023 11.2497 17.5708V12.1541H16.6663C16.9979 12.1541 17.3158 12.0224 17.5502 11.788C17.7846 11.5536 17.9163 11.2356 17.9163 10.9041C17.9163 10.5726 17.7846 10.2547 17.5502 10.0202C17.3158 9.78582 16.9979 9.65412 16.6663 9.65412H11.2497V4.23746C11.2497 3.90594 11.118 3.58799 10.8836 3.35357C10.6491 3.11915 10.3312 2.98746 9.99967 2.98746C9.66815 2.98746 9.35021 3.11915 9.11579 3.35357C8.88137 3.58799 8.74967 3.90594 8.74967 4.23746V9.65412H3.33301C3.00149 9.65412 2.68354 9.78582 2.44912 10.0202C2.2147 10.2547 2.08301 10.5726 2.08301 10.9041C2.08301 11.2356 2.2147 11.5536 2.44912 11.788C2.68354 12.0224 3.00149 12.1541 3.33301 12.1541H8.74967V17.5708Z"
            fill="#878787" />
    </g>
    <defs>
        <clipPath id="clip0_1281_1290">
            <rect width="20" height="20" fill="white" transform="translate(0 0.904114)" />
        </clipPath>
    </defs>
</svg>