<svg width="24" height="24" viewBox="0 0 24 24" fill="none" xmlns="http://www.w3.org/2000/svg">
<path d="M8.25293 4.5C6.46272 4.5 4.74583 5.21116 3.47996 6.47703C2.21409 7.7429 1.50293 9.45979 1.50293 11.25C1.50293 13.0402 2.21409 14.7571 3.47996 16.023C4.74583 17.2888 6.46272 18 8.25293 18H15.7649C17.5551 18 19.272 17.2888 20.5379 16.023C21.8038 14.7571 22.5149 13.0402 22.5149 11.25C22.5149 9.45979 21.8038 7.7429 20.5379 6.47703C19.272 5.21116 17.5551 4.5 15.7649 4.5H8.25293ZM5.25593 11.25C5.25593 11.0511 5.33495 10.8603 5.4756 10.7197C5.61625 10.579 5.80702 10.5 6.00593 10.5H7.50593V9C7.50593 8.80109 7.58495 8.61032 7.7256 8.46967C7.86625 8.32902 8.05702 8.25 8.25593 8.25C8.45484 8.25 8.64561 8.32902 8.78626 8.46967C8.92691 8.61032 9.00593 8.80109 9.00593 9V10.5H10.5059C10.7048 10.5 10.8956 10.579 11.0363 10.7197C11.1769 10.8603 11.2559 11.0511 11.2559 11.25C11.2559 11.4489 11.1769 11.6397 11.0363 11.7803C10.8956 11.921 10.7048 12 10.5059 12H9.00593V13.5C9.00593 13.6989 8.92691 13.8897 8.78626 14.0303C8.64561 14.171 8.45484 14.25 8.25593 14.25C8.05702 14.25 7.86625 14.171 7.7256 14.0303C7.58495 13.8897 7.50593 13.6989 7.50593 13.5V12H6.00593C5.80702 12 5.61625 11.921 5.4756 11.7803C5.33495 11.6397 5.25593 11.4489 5.25593 11.25ZM16.4999 13.5C16.4999 13.8978 16.3419 14.2794 16.0606 14.5607C15.7793 14.842 15.3978 15 14.9999 15C14.6021 15 14.2206 14.842 13.9393 14.5607C13.658 14.2794 13.4999 13.8978 13.4999 13.5C13.4999 13.1022 13.658 12.7206 13.9393 12.4393C14.2206 12.158 14.6021 12 14.9999 12C15.3978 12 15.7793 12.158 16.0606 12.4393C16.3419 12.7206 16.4999 13.1022 16.4999 13.5ZM16.4999 10.5C16.1021 10.5 15.7206 10.342 15.4393 10.0607C15.158 9.77936 14.9999 9.39782 14.9999 9C14.9999 8.60218 15.158 8.22064 15.4393 7.93934C15.7206 7.65804 16.1021 7.5 16.4999 7.5C16.8978 7.5 17.2793 7.65804 17.5606 7.93934C17.8419 8.22064 17.9999 8.60218 17.9999 9C17.9999 9.39782 17.8419 9.77936 17.5606 10.0607C17.2793 10.342 16.8978 10.5 16.4999 10.5Z" fill="#878787"/>
</svg>
